<?xml version="1.0" standalone="no"?>
<!DOCTYPE svg PUBLIC "-//W3C//DTD SVG 20010904//EN"
 "http://www.w3.org/TR/2001/REC-SVG-20010904/DTD/svg10.dtd">
<svg version="1.0" xmlns="http://www.w3.org/2000/svg"
 width="111.000000pt" height="111.000000pt" viewBox="0 0 111.000000 111.000000"
 preserveAspectRatio="xMidYMid meet">
<metadata>
Created by potrace 1.11, written by Peter Selinger 2001-2013
</metadata>
<g transform="translate(0.000000,111.000000) scale(0.100000,-0.100000)"
fill="#000000" stroke="none">
<path d="M73 880 c-35 -14 -54 -64 -55 -138 -1 -88 18 -147 63 -194 28 -30 43
-38 71 -38 52 0 79 27 126 128 24 49 54 100 68 113 53 50 155 18 205 -65 17
-27 17 -31 3 -36 -12 -5 -10 -8 9 -17 20 -9 27 -22 33 -60 20 -119 -9 -227
-70 -264 -61 -37 -174 -14 -231 47 -32 34 -46 23 -18 -14 29 -39 92 -80 139
-90 137 -30 236 122 203 312 -6 32 -8 60 -6 62 2 2 29 6 60 8 l56 4 30 -52
c40 -69 69 -100 118 -126 73 -38 161 -26 203 27 27 34 24 106 -6 128 -29 22
-37 18 -14 -7 11 -12 20 -27 21 -32 0 -6 2 -19 4 -28 5 -27 -48 -78 -82 -79
-91 -4 -155 29 -207 105 -30 45 -34 68 -8 60 15 -5 15 -4 -2 10 -10 8 -22 17
-26 18 -13 5 -60 107 -52 111 10 7 71 -1 108 -13 39 -13 62 -38 74 -79 9 -33
-7 -61 -35 -61 -18 0 -45 39 -45 65 0 16 -2 17 -9 6 -12 -18 11 -66 34 -75 64
-24 111 42 75 108 -17 33 -70 55 -148 62 -42 4 -76 14 -91 26 -18 14 -26 16
-32 6 -10 -16 -2 -27 25 -38 15 -5 29 -27 43 -64 11 -31 18 -58 14 -60 -3 -1
-31 -4 -62 -5 l-55 -2 -36 58 c-75 120 -164 160 -237 105 -14 -10 -48 -63 -76
-117 -59 -115 -89 -144 -133 -126 -43 18 -74 81 -80 162 -4 65 -3 69 26 98 17
17 35 31 41 31 17 0 52 -39 46 -50 -4 -6 0 -10 9 -10 23 0 -2 55 -35 74 -15 9
-29 16 -31 15 -1 0 -13 -4 -25 -9z"/>
</g>
</svg>
